<?xml version="1.0" encoding="utf-8"?>
<?xml-stylesheet type="text/xsl" href="rss1.xsl"?>
<rss version="2.0" xmlns:atom="http://www.w3.org/2005/Atom" xmlns:content="http://purl.org/rss/1.0/modules/content/" xmlns:dc="http://purl.org/dc/elements/1.1/" xmlns:media="http://search.yahoo.com/mrss/">
<channel>
 <title>Getty</title>
 <link>http://www.gettyimg.com/</link>
 <atom:link href="http://www.gettyimg.com/" rel="self" type="application/rss+xml" />

 
                <item>
                <title><![CDATA[【Requests】[REQ AUD] - CD ISO of Michael Jackson - Michael &amp; Harry Potter &amp; Jurassic park]]></title>
                <link><![CDATA[https://sharemania.us/threads/cd-iso-of-michael-jackson-michael-harry-potter-jurassic-park.222628/]]></link>
                <description><![CDATA[<article>
<blockquote class="messageText SelectQuoteContainer ugc baseHtml">
Please do help to find out this track in CD ISO image
<div class="messageTextEndMarker">&nbsp;</div>
</blockquote>
</article>]]></description>
                <author><![CDATA[Dragpunk]]></author>
                </item>

                
                <item>
                <title><![CDATA[【Requests】[REQ AUD] - The 1st Japanese Studio Album - «Lee Hi Japan Debut Album»]]></title>
                <link><![CDATA[https://sharemania.us/threads/the-1st-japanese-studio-album-%C2%ABlee-hi-japan-debut-album%C2%BB.222629/]]></link>
                <description><![CDATA[<article>
<blockquote class="messageText SelectQuoteContainer ugc baseHtml">
Greetings,<br>
<br>
I would be very grateful if you could share this album or at least <b>japanese versions </b>of<b> "Breathe" </b>and <b>"Rose"</b>, doesn't matter if it's 16 or 24 bit.<br>
<br>
Thank you.<br>
<br>
The 1st Japanese Studio Album - «Lee Hi Japan Debut Album»<br>
<b>Discogs link: </b>[ <a href="https://www.discogs.com/release/16053386-Lee-Hi-Lee-Hi-Japan-Debut-Album" target="_blank" class="externalLink" rel="nofollow">https://www.discogs.com/release/16053386-Lee-Hi-Lee-Hi-Japan-Debut-Album</a> ]<br>
<br>
<img src="https://i.scdn.co/image/ab67616d0000b273c375cd4c0d5ce16d692bf80e" class="bbCodeImage LbImage" alt="[​IMG]" data-url="https://i.scdn.co/image/ab67616d0000b273c375cd4c0d5ce16d692bf80e" style="">
<div class="messageTextEndMarker">&nbsp;</div>
</blockquote>
</article>]]></description>
                <author><![CDATA[WithLovrSNSD]]></author>
                </item>

                
                <item>
                <title><![CDATA[【HD Live Performances】FEED - Jennifer Lopez ft. Keith Urban &amp; Harry Connick, Jr., - Diamonds &amp; Locked Out of Heaven American Idol 2015 720p Feed MPEG2-TrollHD]]></title>
                <link><![CDATA[https://sharemania.us/threads/jennifer-lopez-ft-keith-urban-harry-connick-jr-diamonds-locked-out-of-heaven-american-idol-2015-720p-feed-mpeg2-trollhd.222630/]]></link>
                <description><![CDATA[<article>
<blockquote class="messageText SelectQuoteContainer ugc baseHtml">
<img src="https://images2.imgbox.com/c7/84/clxMatTt_o.jpg" class="bbCodeImage LbImage" alt="[​IMG]" data-url="https://images2.imgbox.com/c7/84/clxMatTt_o.jpg" style=""> <br>
<br>
<div class="bbCodeBlock bbCodeCode">
<div class="type">Code:</div>
<pre>General
Unique ID                      : 80008161194109018154917386233052802387 (0x3C3102E76F3879CD3E5BF2DF155A2D53)
Format                         : Matroska
Format version                 : Version 4
File size                      : 1.48 GiB
Duration                       : 4 min 44 s
Overall bit rate mode          : Variable
Overall bit rate               : 44.7 Mb/s
Encoded date                   : UTC 2023-06-13 17:58:30
Writing application            : mkvmerge v30.0.0 ('Interstellar') 64-bit
Writing library                : libebml v1.3.6 + libmatroska v1.4.9

Video
ID                             : 1
Format                         : MPEG Video
Format version                 : Version 2
Format profile                 : Main@High
Format settings                : CustomMatrix / BVOP
Format settings, BVOP          : Yes
Format settings, Matrix        : Custom
Format settings, GOP           : M=3, N=15
Codec ID                       : V_MPEG2
Codec ID/Info                  : MPEG 1 or 2 Video
Duration                       : 4 min 44 s
Bit rate mode                  : Variable
Bit rate                       : 42.7 Mb/s
Maximum bit rate               : 43.9 Mb/s
Width                          : 1 280 pixels
Height                         : 720 pixels
Display aspect ratio           : 16:9
Frame rate mode                : Constant
Frame rate                     : 59.940 (60000/1001) FPS
Color space                    : YUV
Chroma subsampling             : 4:2:0
Bit depth                      : 8 bits
Scan type                      : Progressive
Compression mode               : Lossy
Bits/(Pixel*Frame)             : 0.774
Time code of first frame       : 01:22:27;03
Time code source               : Group of pictures header
GOP, Open/Closed               : Open
GOP, Open/Closed of first fram : Closed
Stream size                    : 1.41 GiB (95%)
Default                        : Yes
Forced                         : No
Color primaries                : BT.709
Transfer characteristics       : BT.709
Matrix coefficients            : BT.709

Audio
ID                             : 2
Format                         : FLAC
Format/Info                    : Free Lossless Audio Codec
Codec ID                       : A_FLAC
Duration                       : 4 min 44 s
Bit rate mode                  : Variable
Bit rate                       : 2 016 kb/s
Channel(s)                     : 6 channels
Channel layout                 : L R C LFE Ls Rs
Sampling rate                  : 48.0 kHz
Frame rate                     : 11.719 FPS (4096 SPF)
Bit depth                      : 16 bits
Compression mode               : Lossless
Delay relative to video        : 55 ms
Stream size                    : 68.3 MiB (5%)
Writing library                : libFLAC 1.3.1 (UTC 2014-11-25)
Language                       : English
Default                        : Yes
Forced                         : No

</pre>
</div>
<div class="bbCodeBlock bbCodeVfcHH HiddenContent">
<div class="attribution type">Hidden Content:</div>
<blockquote>You must either reply or click 'Like' to see the hidden information contained here.</blockquote>
</div><br>
<br>
Cutted using <b>MKVToolNix GUI </b>from:<br>
<b><span style="color: #ff0000">*American Idol S14E30 Season 14 Finale 720p HDTV Backhaul FLAC 5.1 MPEG2-TrollHD<br>
<br>
<img src="styles/default/xenforo/smilies/super_man-48.png" class="mceSmilie" alt=":super:" title="Super Man    :super:"><img src="styles/default/xenforo/smilies/super_man-48.png" class="mceSmilie" alt=":super:" title="Super Man    :super:"><img src="styles/default/xenforo/smilies/super_man-48.png" class="mceSmilie" alt=":super:" title="Super Man    :super:"></span></b>
<div class="messageTextEndMarker">&nbsp;</div>
</blockquote>
</article>]]></description>
                <author><![CDATA[Dream66]]></author>
                </item>

                </channel></rss>